<svg xmlns="http://www.w3.org/2000/svg" id="ICONS-64x" viewBox="0 0 64 64"><defs><style>.cls-1{fill:#fff}.cls-1,.cls-6{stroke:#556a8a;stroke-miterlimit:10;stroke-width:2px}.cls-2,.cls-6{fill:none}.cls-3{fill:#2bc7f4}.cls-4{fill:#e5e5e5}.cls-5{fill:#556a8a}</style></defs><title>i_web-apps</title><path d="M52,60a3,3,0,0,1-3,3H17a3,3,0,0,1-3-3V4a3,3,0,0,1,3-3H49a3,3,0,0,1,3,3Z" class="cls-1"/><rect width="32" height="32" x="17" y="15" class="cls-2"/><rect width="20" height="2" x="23" y="4" class="cls-3" rx="1" ry="1"/><circle cx="32" cy="59" r="2" class="cls-3"/><rect width="36" height="49" x="15" y="7" class="cls-4"/><g><path d="M33,17A14,14,0,1,0,47,31,14,14,0,0,0,33,17Z" class="cls-1"/><polygon points="46.81 28 19.13 28 20.13 26 46.14 26 46.81 28" class="cls-5"/><polygon points="45.84 37 19.84 37 19.44 35 46.69 35 45.84 37" class="cls-5"/><path d="M33,17c-3.87,0-7,6.27-7,14s3.13,14,7,14,7-6.27,7-14S36.87,17,33,17Z" class="cls-6"/></g><rect width="32" height="32" x="17" y="15" class="cls-2"/></svg>