<svg xmlns="http://www.w3.org/2000/svg" id="Titles" viewBox="0 0 64 64"><defs><style>.cls-1{fill:none;stroke:#556a8a;stroke-miterlimit:10;stroke-width:2px}.cls-2{fill:#556a8a}.cls-3{fill:#fff;opacity:.2}</style></defs><title>i_data-collection</title><polyline points="59 21 59 57 5 57 5 21" class="cls-1"/><rect width="8" height="8" x="28" y="42" class="cls-2"/><rect width="8" height="8" x="41" y="42" class="cls-2"/><rect width="8" height="8" x="15" y="42" class="cls-2"/><polygon points="23 42 23 50 15 42 23 42" class="cls-3"/><polygon points="36 42 36 50 28 42 36 42" class="cls-3"/><polygon points="49 42 49 50 41 42 49 42" class="cls-3"/><rect width="8" height="8" x="28" y="29" class="cls-2"/><rect width="8" height="8" x="41" y="29" class="cls-2"/><rect width="8" height="8" x="15" y="29" class="cls-2"/><polygon points="23 29 23 37 15 29 23 29" class="cls-3"/><polygon points="36 29 36 37 28 29 36 29" class="cls-3"/><polygon points="49 29 49 37 41 29 49 29" class="cls-3"/><rect width="8" height="8" x="28" y="16" class="cls-2"/><rect width="8" height="8" x="15" y="16" class="cls-2"/><polygon points="23 16 23 24 15 16 23 16" class="cls-3"/><polygon points="36 16 36 24 28 16 36 16" class="cls-3"/><rect width="8" height="8" x="50" y="5" class="cls-2"/><polygon points="58 5 58 13 50 5 58 5" class="cls-3"/></svg>