<svg xmlns="http://www.w3.org/2000/svg" viewBox="0 0 64 64"><defs><style>.cls-1{fill:none;stroke:#556a8a;stroke-miterlimit:10;stroke-width:2px}.cls-2{fill:#55d2f6}.cls-3{fill:#c2c2c2}</style></defs><title>i_library copy 3</title><g id="ICONS-64x"><rect width="60" height="50" x="2" y="7" class="cls-1"/><line x1="2" x2="62" y1="20" y2="20" class="cls-1"/><line x1="2" x2="62" y1="33" y2="33" class="cls-1"/><line x1="2" x2="62" y1="46" y2="46" class="cls-1"/><rect width="58" height="11" x="3" y="8" class="cls-2"/><rect width="58" height="11" x="3" y="34" class="cls-3"/><line x1="23" x2="23" y1="8" y2="56" class="cls-1"/><line x1="41" x2="41" y1="7" y2="56" class="cls-1"/><line x1="26" x2="38" y1="26" y2="26" class="cls-1"/><line x1="44" x2="59" y1="26" y2="26" class="cls-1"/><line x1="5" x2="20" y1="26" y2="26" class="cls-1"/><line x1="5" x2="20" y1="13" y2="13" class="cls-1"/><line x1="5" x2="20" y1="40" y2="40" class="cls-1"/><line x1="26" x2="38" y1="51" y2="51" class="cls-1"/><line x1="44" x2="59" y1="51" y2="51" class="cls-1"/><line x1="5" x2="20" y1="51" y2="51" class="cls-1"/></g></svg>