<svg xmlns="http://www.w3.org/2000/svg" viewBox="0 0 64 64"><defs><style>.cls-1{fill:#fff}.cls-2{fill:#80def9}.cls-3,.cls-4,.cls-5{fill:none;stroke:#556a8a;stroke-miterlimit:10;stroke-width:2px}.cls-4{stroke-dasharray:3.83 2.88}.cls-5{stroke-dasharray:3.87 2.9}</style></defs><title>i_template</title><g id="ICONS-64x"><rect width="29" height="36" x="35" y="28" class="cls-1"/><path d="M33,26H56V20.37L35.88,1H11a1,1,0,0,0-1,1V62a1,1,0,0,0,1,1H33Z" class="cls-1"/><polygon points="56 21 35 21 35 1 56 21" class="cls-2"/><path d="M56,26V20.37L35.88,1H11a1,1,0,0,0-1,1V62a1,1,0,0,0,1,1H33" class="cls-3"/><polyline points="35 1 35 21 56 21" class="cls-3"/><g><polyline points="63 61 63 63 61 63" class="cls-3"/><line x1="58.13" x2="39.44" y1="63" y2="63" class="cls-4"/><polyline points="38 63 36 63 36 61" class="cls-3"/><line x1="36" x2="36" y1="58.1" y2="32.45" class="cls-5"/><polyline points="36 31 36 29 38 29" class="cls-3"/><line x1="40.88" x2="59.56" y1="29" y2="29" class="cls-4"/><polyline points="61 29 63 29 63 31" class="cls-3"/><line x1="63" x2="63" y1="33.9" y2="59.55" class="cls-5"/></g></g></svg>