<svg xmlns="http://www.w3.org/2000/svg" xmlns:xlink="http://www.w3.org/1999/xlink" id="Layer_1" x="0" y="0" version="1.1" viewBox="0 0 46 36" xml:space="preserve" style="enable-background:new 0 0 46 36"><style type="text/css">.st0{fill:#752774}</style><g><g><path d="M30.3,27c-0.6-0.6-1.5-0.6-2.1,0l-3.1,3.2c-0.6,0.6-0.6,1.6,0,2.1l3.1,3.2c0.6,0.6,1.5,0.6,2.1,0l3.1-3.2 c0.6-0.6,0.6-1.6,0-2.1L30.3,27z" class="st0"/><path d="M36.8,20.3c-0.6-0.6-1.5-0.6-2.1,0l-3.1,3.2c-0.6,0.6-0.6,1.6,0,2.1l3.1,3.2c0.6,0.6,1.5,0.6,2.1,0l3.1-3.2 c0.6-0.6,0.6-1.6,0-2.1L36.8,20.3z" class="st0"/><path d="M27,23.5l-1-1l0,0l-8.5-8.9C17,13,16,13,15.5,13.5L7,22.4l0,0l-1,1c-0.6,0.6-0.6,1.6,0,2.1l1,1l0,0l8.5,8.9 c0.6,0.6,1.5,0.6,2.1,0l8.5-8.9l0,0l1-1C27.6,25,27.6,24.1,27,23.5z M15.5,28.8l-2.3-2.4l-0.8-0.8c-0.6-0.6-0.6-1.6,0-2.1l3.1-3.2 c0.6-0.6,1.5-0.6,2.1,0l3.1,3.2c0.6,0.6,0.6,1.6,0,2.1l-0.8,0.8l-2.3,2.4C17,29.4,16,29.4,15.5,28.8z" class="st0"/><path d="M30.3,22.1l3.1-3.2c0.6-0.6,0.6-1.6,0-2.1l-3.1-3.2c-0.6-0.6-1.5-0.6-2.1,0l-3.1,3.2c-0.6,0.6-0.6,1.6,0,2.1 l3.1,3.2C28.8,22.7,29.8,22.7,30.3,22.1z" class="st0"/></g><path d="M40.6,31.2h-0.9v-1.9h0.9c2,0,3.6-1.7,3.6-3.7V5.7c0-2.1-1.6-3.7-3.6-3.7H5.4c-2,0-3.6,1.7-3.6,3.7v19.8 c0,2.1,1.6,3.7,3.6,3.7h0.9v1.9H5.4c-3,0-5.4-2.5-5.4-5.7V5.7C0,2.5,2.4,0,5.4,0h35.1c3,0,5.4,2.5,5.4,5.7v19.8 C46,28.6,43.6,31.2,40.6,31.2" class="st0"/></g></svg>